<?xml version="1.0" encoding="UTF-8" standalone="no"?>
<svg
   width="575.32458pt"
   height="91.821724pt"
   viewBox="0 0 575.3246 91.821724"
   version="1.1"
   id="svg310"
   sodipodi:docname="height_6.svg"
   inkscape:version="1.2.2 (b0a8486541, 2022-12-01)"
   xmlns:inkscape="http://www.inkscape.org/namespaces/inkscape"
   xmlns:sodipodi="http://sodipodi.sourceforge.net/DTD/sodipodi-0.dtd"
   xmlns:xlink="http://www.w3.org/1999/xlink"
   xmlns="http://www.w3.org/2000/svg"
   xmlns:svg="http://www.w3.org/2000/svg"
   xmlns:rdf="http://www.w3.org/1999/02/22-rdf-syntax-ns#"
   xmlns:cc="http://creativecommons.org/ns#"
   xmlns:dc="http://purl.org/dc/elements/1.1/">
  <sodipodi:namedview
     id="namedview312"
     pagecolor="#ffffff"
     bordercolor="#666666"
     borderopacity="1.0"
     inkscape:showpageshadow="2"
     inkscape:pageopacity="0.0"
     inkscape:pagecheckerboard="0"
     inkscape:deskcolor="#d1d1d1"
     inkscape:document-units="pt"
     showgrid="false"
     inkscape:zoom="0.74121767"
     inkscape:cx="147.72988"
     inkscape:cy="-24.95893"
     inkscape:window-width="2560"
     inkscape:window-height="1402"
     inkscape:window-x="1600"
     inkscape:window-y="0"
     inkscape:window-maximized="1"
     inkscape:current-layer="patch_1" />
  <metadata
     id="metadata2">
    <rdf:RDF>
      <cc:Work>
        <dc:type
           rdf:resource="http://purl.org/dc/dcmitype/StillImage" />
        <dc:date>2024-11-26T15:58:33.879950</dc:date>
        <dc:format>image/svg+xml</dc:format>
        <dc:creator>
          <cc:Agent>
            <dc:title>Matplotlib v3.8.0, https://matplotlib.org/</dc:title>
          </cc:Agent>
        </dc:creator>
      </cc:Work>
    </rdf:RDF>
  </metadata>
  <defs
     id="defs6">
    <style
       type="text/css"
       id="style4">*{stroke-linejoin: round; stroke-linecap: butt}</style>
  </defs>
  <g
     id="figure_1"
     transform="translate(-8.2984375,-138.85734)">
    <g
       id="patch_1" />
    <g
       id="axes_1">
      <g
         id="patch_2" />
      <g
         id="PathCollection_1">
        <defs
           id="defs15">
          <path
             id="me0708a0af0"
             d="m 0,8.660254 c 2.296726,0 4.499694,-0.912499 6.123724,-2.53653 C 7.747755,4.499694 8.660254,2.296726 8.660254,0 c 0,-2.296726 -0.912499,-4.499694 -2.53653,-6.123724 C 4.499694,-7.747755 2.296726,-8.660254 0,-8.660254 c -2.296726,0 -4.499694,0.912499 -6.123724,2.53653 -1.624031,1.62403 -2.53653,3.826998 -2.53653,6.123724 0,2.296726 0.912499,4.499694 2.53653,6.123724 1.62403,1.624031 3.826998,2.53653 6.123724,2.53653 z"
             style="stroke:#90ee90;stroke-opacity:0.5" />
        </defs>
        <g
           clip-path="url(#pf26bb54f20)"
           id="g19">
          <use
             xlink:href="#me0708a0af0"
             x="51.618752"
             y="201.24001"
             style="fill:#90ee90;fill-opacity:0.5;stroke:#90ee90;stroke-opacity:0.5"
             id="use17" />
        </g>
      </g>
      <g
         id="PathCollection_2">
        <g
           clip-path="url(#pf26bb54f20)"
           id="g24">
          <use
             xlink:href="#me0708a0af0"
             x="51.618752"
             y="183.49921"
             style="fill:#90ee90;fill-opacity:0.5;stroke:#90ee90;stroke-opacity:0.5"
             id="use22" />
        </g>
      </g>
      <g
         id="PathCollection_3">
        <g
           clip-path="url(#pf26bb54f20)"
           id="g29">
          <use
             xlink:href="#me0708a0af0"
             x="121.36875"
             y="201.24001"
             style="fill:#90ee90;fill-opacity:0.5;stroke:#90ee90;stroke-opacity:0.5"
             id="use27" />
        </g>
      </g>
      <g
         id="PathCollection_4">
        <g
           clip-path="url(#pf26bb54f20)"
           id="g34">
          <use
             xlink:href="#me0708a0af0"
             x="121.36875"
             y="183.49921"
             style="fill:#90ee90;fill-opacity:0.5;stroke:#90ee90;stroke-opacity:0.5"
             id="use32" />
        </g>
      </g>
      <g
         id="PathCollection_5">
        <g
           clip-path="url(#pf26bb54f20)"
           id="g39">
          <use
             xlink:href="#me0708a0af0"
             x="191.11874"
             y="201.24001"
             style="fill:#90ee90;fill-opacity:0.5;stroke:#90ee90;stroke-opacity:0.5"
             id="use37" />
        </g>
      </g>
      <g
         id="PathCollection_6">
        <g
           clip-path="url(#pf26bb54f20)"
           id="g44">
          <use
             xlink:href="#me0708a0af0"
             x="191.11874"
             y="183.49921"
             style="fill:#90ee90;fill-opacity:0.5;stroke:#90ee90;stroke-opacity:0.5"
             id="use42" />
        </g>
      </g>
      <g
         id="PathCollection_7">
        <g
           clip-path="url(#pf26bb54f20)"
           id="g49">
          <use
             xlink:href="#me0708a0af0"
             x="191.11874"
             y="165.75841"
             style="fill:#90ee90;fill-opacity:0.5;stroke:#90ee90;stroke-opacity:0.5"
             id="use47" />
        </g>
      </g>
      <g
         id="PathCollection_8">
        <g
           clip-path="url(#pf26bb54f20)"
           id="g54">
          <use
             xlink:href="#me0708a0af0"
             x="191.11874"
             y="148.01759"
             style="fill:#90ee90;fill-opacity:0.5;stroke:#90ee90;stroke-opacity:0.5"
             id="use52" />
        </g>
      </g>
      <g
         id="PathCollection_9">
        <g
           clip-path="url(#pf26bb54f20)"
           id="g59">
          <use
             xlink:href="#me0708a0af0"
             x="260.86874"
             y="201.24001"
             style="fill:#90ee90;fill-opacity:0.5;stroke:#90ee90;stroke-opacity:0.5"
             id="use57" />
        </g>
      </g>
      <g
         id="PathCollection_10">
        <g
           clip-path="url(#pf26bb54f20)"
           id="g64">
          <use
             xlink:href="#me0708a0af0"
             x="260.86874"
             y="183.49921"
             style="fill:#90ee90;fill-opacity:0.5;stroke:#90ee90;stroke-opacity:0.5"
             id="use62" />
        </g>
      </g>
      <g
         id="PathCollection_11">
        <g
           clip-path="url(#pf26bb54f20)"
           id="g69">
          <use
             xlink:href="#me0708a0af0"
             x="260.86874"
             y="165.75841"
             style="fill:#90ee90;fill-opacity:0.5;stroke:#90ee90;stroke-opacity:0.5"
             id="use67" />
        </g>
      </g>
      <g
         id="PathCollection_12">
        <g
           clip-path="url(#pf26bb54f20)"
           id="g74">
          <use
             xlink:href="#me0708a0af0"
             x="260.86874"
             y="148.01759"
             style="fill:#90ee90;fill-opacity:0.5;stroke:#90ee90;stroke-opacity:0.5"
             id="use72" />
        </g>
      </g>
      <g
         id="PathCollection_13">
        <g
           clip-path="url(#pf26bb54f20)"
           id="g79">
          <use
             xlink:href="#me0708a0af0"
             x="330.61874"
             y="201.24001"
             style="fill:#90ee90;fill-opacity:0.5;stroke:#90ee90;stroke-opacity:0.5"
             id="use77" />
        </g>
      </g>
      <g
         id="PathCollection_14">
        <g
           clip-path="url(#pf26bb54f20)"
           id="g84">
          <use
             xlink:href="#me0708a0af0"
             x="330.61874"
             y="183.49921"
             style="fill:#90ee90;fill-opacity:0.5;stroke:#90ee90;stroke-opacity:0.5"
             id="use82" />
        </g>
      </g>
      <g
         id="PathCollection_15">
        <g
           clip-path="url(#pf26bb54f20)"
           id="g89">
          <use
             xlink:href="#me0708a0af0"
             x="330.61874"
             y="165.75841"
             style="fill:#90ee90;fill-opacity:0.5;stroke:#90ee90;stroke-opacity:0.5"
             id="use87" />
        </g>
      </g>
      <g
         id="PathCollection_16">
        <g
           clip-path="url(#pf26bb54f20)"
           id="g94">
          <use
             xlink:href="#me0708a0af0"
             x="400.36874"
             y="201.24001"
             style="fill:#90ee90;fill-opacity:0.5;stroke:#90ee90;stroke-opacity:0.5"
             id="use92" />
        </g>
      </g>
      <g
         id="PathCollection_17">
        <g
           clip-path="url(#pf26bb54f20)"
           id="g99">
          <use
             xlink:href="#me0708a0af0"
             x="470.11874"
             y="201.24001"
             style="fill:#90ee90;fill-opacity:0.5;stroke:#90ee90;stroke-opacity:0.5"
             id="use97" />
        </g>
      </g>
      <g
         id="PathCollection_18">
        <g
           clip-path="url(#pf26bb54f20)"
           id="g104">
          <use
             xlink:href="#me0708a0af0"
             x="470.11874"
             y="183.49921"
             style="fill:#90ee90;fill-opacity:0.5;stroke:#90ee90;stroke-opacity:0.5"
             id="use102" />
        </g>
      </g>
      <g
         id="matplotlib.axis_1">
        <g
           id="xtick_1">
          <g
             id="line2d_1">
            <defs
               id="defs108">
              <path
                 id="m031f27e14b"
                 d="M 0,0 V 3.5"
                 style="stroke:#000000;stroke-width:0.8" />
            </defs>
            <g
               id="g112">
              <use
                 xlink:href="#m031f27e14b"
                 x="16.74375"
                 y="201.24001"
                 style="stroke:#000000;stroke-width:0.8"
                 id="use110" />
            </g>
          </g>
          <g
             id="text_1">
            <!-- 130 -->
            <g
               transform="matrix(0.1,0,0,-0.1,7.2,215.83844)"
               id="g126">
              <defs
                 id="defs118">
                <path
                   id="DejaVuSans-31"
                   d="M 794,531 H 1825 V 4091 L 703,3866 v 575 l 1116,225 h 631 V 531 H 3481 V 0 H 794 Z"
                   transform="scale(0.015625)" />
                <path
                   id="DejaVuSans-33"
                   d="m 2597,2516 q 453,-97 707,-404 255,-306 255,-756 0,-690 -475,-1069 -475,-378 -1350,-378 -293,0 -604,58 -311,58 -642,174 v 609 q 262,-153 574,-231 313,-78 654,-78 593,0 904,234 311,234 311,681 0,413 -289,645 -289,233 -804,233 h -544 v 519 h 569 q 465,0 712,186 247,186 247,536 0,359 -255,551 -254,193 -729,193 -260,0 -557,-57 -297,-56 -653,-174 v 562 q 360,100 674,150 314,50 592,50 719,0 1137,-327 419,-326 419,-882 0,-388 -222,-655 -222,-267 -631,-370 z"
                   transform="scale(0.015625)" />
                <path
                   id="DejaVuSans-30"
                   d="m 2034,4250 q -487,0 -733,-480 -245,-479 -245,-1442 0,-959 245,-1439 246,-480 733,-480 491,0 736,480 246,480 246,1439 0,963 -246,1442 -245,480 -736,480 z m 0,500 q 785,0 1199,-621 414,-620 414,-1801 0,-1178 -414,-1799 -414,-620 -1199,-620 -784,0 -1198,620 -414,621 -414,1799 0,1181 414,1801 414,621 1198,621 z"
                   transform="scale(0.015625)" />
              </defs>
              <use
                 xlink:href="#DejaVuSans-31"
                 id="use120" />
              <use
                 xlink:href="#DejaVuSans-33"
                 x="63.623047"
                 id="use122" />
              <use
                 xlink:href="#DejaVuSans-30"
                 x="127.24609"
                 id="use124" />
            </g>
          </g>
        </g>
        <g
           id="xtick_2">
          <g
             id="line2d_2">
            <g
               id="g132">
              <use
                 xlink:href="#m031f27e14b"
                 x="86.493752"
                 y="201.24001"
                 style="stroke:#000000;stroke-width:0.8"
                 id="use130" />
            </g>
          </g>
          <g
             id="text_2">
            <!-- 140 -->
            <g
               transform="matrix(0.1,0,0,-0.1,76.95,215.83844)"
               id="g144">
              <defs
                 id="defs136">
                <path
                   id="DejaVuSans-34"
                   d="M 2419,4116 825,1625 h 1594 z m -166,550 h 794 V 1625 h 666 V 1100 H 3047 V 0 H 2419 V 1100 H 313 v 609 z"
                   transform="scale(0.015625)" />
              </defs>
              <use
                 xlink:href="#DejaVuSans-31"
                 id="use138" />
              <use
                 xlink:href="#DejaVuSans-34"
                 x="63.623047"
                 id="use140" />
              <use
                 xlink:href="#DejaVuSans-30"
                 x="127.24609"
                 id="use142" />
            </g>
          </g>
        </g>
        <g
           id="xtick_3">
          <g
             id="line2d_3">
            <g
               id="g150">
              <use
                 xlink:href="#m031f27e14b"
                 x="156.24374"
                 y="201.24001"
                 style="stroke:#000000;stroke-width:0.8"
                 id="use148" />
            </g>
          </g>
          <g
             id="text_3">
            <!-- 150 -->
            <g
               transform="matrix(0.1,0,0,-0.1,146.7,215.83844)"
               id="g162">
              <defs
                 id="defs154">
                <path
                   id="DejaVuSans-35"
                   d="M 691,4666 H 3169 V 4134 H 1269 V 2991 q 137,47 274,70 138,23 276,23 781,0 1237,-428 457,-428 457,-1159 Q 3513,744 3044,326 2575,-91 1722,-91 1428,-91 1123,-41 819,9 494,109 v 635 q 281,-153 581,-228 300,-75 634,-75 541,0 856,284 316,284 316,772 0,487 -316,771 -315,285 -856,285 -253,0 -505,-56 -251,-56 -513,-175 z"
                   transform="scale(0.015625)" />
              </defs>
              <use
                 xlink:href="#DejaVuSans-31"
                 id="use156" />
              <use
                 xlink:href="#DejaVuSans-35"
                 x="63.623047"
                 id="use158" />
              <use
                 xlink:href="#DejaVuSans-30"
                 x="127.24609"
                 id="use160" />
            </g>
          </g>
        </g>
        <g
           id="xtick_4">
          <g
             id="line2d_4">
            <g
               id="g168">
              <use
                 xlink:href="#m031f27e14b"
                 x="225.99374"
                 y="201.24001"
                 style="stroke:#000000;stroke-width:0.8"
                 id="use166" />
            </g>
          </g>
          <g
             id="text_4">
            <!-- 160 -->
            <g
               transform="matrix(0.1,0,0,-0.1,216.45,215.83844)"
               id="g180">
              <defs
                 id="defs172">
                <path
                   id="DejaVuSans-36"
                   d="m 2113,2584 q -425,0 -674,-291 -248,-290 -248,-796 0,-503 248,-796 249,-292 674,-292 425,0 673,292 248,293 248,796 0,506 -248,796 -248,291 -673,291 z m 1253,1979 v -575 q -238,112 -480,171 -242,60 -480,60 -625,0 -955,-422 -329,-422 -376,-1275 184,272 462,417 279,145 613,145 703,0 1111,-427 408,-426 408,-1160 0,-719 -425,-1154 -425,-434 -1131,-434 -810,0 -1238,620 -428,621 -428,1799 0,1106 525,1764 525,658 1409,658 238,0 480,-47 242,-47 505,-140 z"
                   transform="scale(0.015625)" />
              </defs>
              <use
                 xlink:href="#DejaVuSans-31"
                 id="use174" />
              <use
                 xlink:href="#DejaVuSans-36"
                 x="63.623047"
                 id="use176" />
              <use
                 xlink:href="#DejaVuSans-30"
                 x="127.24609"
                 id="use178" />
            </g>
          </g>
        </g>
        <g
           id="xtick_5">
          <g
             id="line2d_5">
            <g
               id="g186">
              <use
                 xlink:href="#m031f27e14b"
                 x="295.74374"
                 y="201.24001"
                 style="stroke:#000000;stroke-width:0.8"
                 id="use184" />
            </g>
          </g>
          <g
             id="text_5">
            <!-- 170 -->
            <g
               transform="matrix(0.1,0,0,-0.1,286.2,215.83844)"
               id="g198">
              <defs
                 id="defs190">
                <path
                   id="DejaVuSans-37"
                   d="M 525,4666 H 3525 V 4397 L 1831,0 H 1172 L 2766,4134 H 525 Z"
                   transform="scale(0.015625)" />
              </defs>
              <use
                 xlink:href="#DejaVuSans-31"
                 id="use192" />
              <use
                 xlink:href="#DejaVuSans-37"
                 x="63.623047"
                 id="use194" />
              <use
                 xlink:href="#DejaVuSans-30"
                 x="127.24609"
                 id="use196" />
            </g>
          </g>
        </g>
        <g
           id="xtick_6">
          <g
             id="line2d_6">
            <g
               id="g204">
              <use
                 xlink:href="#m031f27e14b"
                 x="365.49374"
                 y="201.24001"
                 style="stroke:#000000;stroke-width:0.8"
                 id="use202" />
            </g>
          </g>
          <g
             id="text_6">
            <!-- 180 -->
            <g
               transform="matrix(0.1,0,0,-0.1,355.95,215.83844)"
               id="g216">
              <defs
                 id="defs208">
                <path
                   id="DejaVuSans-38"
                   d="m 2034,2216 q -450,0 -708,-241 -257,-241 -257,-662 0,-422 257,-663 258,-241 708,-241 450,0 709,242 260,243 260,662 0,421 -258,662 -257,241 -711,241 z m -631,268 q -406,100 -633,378 -226,279 -226,679 0,559 398,884 399,325 1092,325 697,0 1094,-325 397,-325 397,-884 0,-400 -227,-679 -226,-278 -629,-378 456,-106 710,-416 255,-309 255,-755 Q 3634,634 3220,271 2806,-91 2034,-91 1263,-91 848,271 434,634 434,1313 q 0,446 256,755 257,310 713,416 z m -231,997 q 0,-362 226,-565 227,-203 636,-203 407,0 636,203 230,203 230,565 0,363 -230,566 -229,203 -636,203 -409,0 -636,-203 -226,-203 -226,-566 z"
                   transform="scale(0.015625)" />
              </defs>
              <use
                 xlink:href="#DejaVuSans-31"
                 id="use210" />
              <use
                 xlink:href="#DejaVuSans-38"
                 x="63.623047"
                 id="use212" />
              <use
                 xlink:href="#DejaVuSans-30"
                 x="127.24609"
                 id="use214" />
            </g>
          </g>
        </g>
        <g
           id="xtick_7">
          <g
             id="line2d_7">
            <g
               id="g222">
              <use
                 xlink:href="#m031f27e14b"
                 x="435.24374"
                 y="201.24001"
                 style="stroke:#000000;stroke-width:0.8"
                 id="use220" />
            </g>
          </g>
          <g
             id="text_7">
            <!-- 190 -->
            <g
               transform="matrix(0.1,0,0,-0.1,425.7,215.83844)"
               id="g234">
              <defs
                 id="defs226">
                <path
                   id="DejaVuSans-39"
                   d="m 703,97 v 575 q 238,-113 481,-172 244,-59 479,-59 625,0 954,420 330,420 377,1277 -181,-269 -460,-413 -278,-144 -615,-144 -700,0 -1108,423 -408,424 -408,1159 0,718 425,1152 425,435 1131,435 810,0 1236,-621 427,-620 427,-1801 Q 3622,1225 3098,567 2575,-91 1691,-91 1453,-91 1209,-44 966,3 703,97 Z m 1256,1978 q 425,0 673,290 249,291 249,798 0,503 -249,795 -248,292 -673,292 -425,0 -673,-292 -248,-292 -248,-795 0,-507 248,-798 248,-290 673,-290 z"
                   transform="scale(0.015625)" />
              </defs>
              <use
                 xlink:href="#DejaVuSans-31"
                 id="use228" />
              <use
                 xlink:href="#DejaVuSans-39"
                 x="63.623047"
                 id="use230" />
              <use
                 xlink:href="#DejaVuSans-30"
                 x="127.24609"
                 id="use232" />
            </g>
          </g>
        </g>
        <g
           id="xtick_8">
          <g
             id="line2d_8">
            <g
               id="g240">
              <use
                 xlink:href="#m031f27e14b"
                 x="504.99374"
                 y="201.24001"
                 style="stroke:#000000;stroke-width:0.8"
                 id="use238" />
            </g>
          </g>
          <g
             id="text_8">
            <!-- 200 -->
            <g
               transform="matrix(0.1,0,0,-0.1,495.45,215.83844)"
               id="g252">
              <defs
                 id="defs244">
                <path
                   id="DejaVuSans-32"
                   d="M 1228,531 H 3431 V 0 H 469 v 531 q 359,372 979,998 621,627 780,809 303,340 423,576 121,236 121,464 0,372 -261,606 -261,235 -680,235 -297,0 -627,-103 -329,-103 -704,-313 v 638 q 381,153 712,231 332,78 607,78 725,0 1156,-363 431,-362 431,-968 0,-288 -108,-546 -107,-257 -392,-607 -78,-91 -497,-524 Q 1991,1309 1228,531 Z"
                   transform="scale(0.015625)" />
              </defs>
              <use
                 xlink:href="#DejaVuSans-32"
                 id="use246" />
              <use
                 xlink:href="#DejaVuSans-30"
                 x="63.623047"
                 id="use248" />
              <use
                 xlink:href="#DejaVuSans-30"
                 x="127.24609"
                 id="use250" />
            </g>
          </g>
        </g>
        <g
           id="xtick_9">
          <g
             id="line2d_9">
            <g
               id="g258">
              <use
                 xlink:href="#m031f27e14b"
                 x="574.74377"
                 y="201.24001"
                 style="stroke:#000000;stroke-width:0.8"
                 id="use256" />
            </g>
          </g>
          <g
             id="text_9">
            <!-- 210 -->
            <g
               transform="matrix(0.1,0,0,-0.1,565.2,215.83844)"
               id="g267">
              <use
                 xlink:href="#DejaVuSans-32"
                 id="use261" />
              <use
                 xlink:href="#DejaVuSans-31"
                 x="63.623047"
                 id="use263" />
              <use
                 xlink:href="#DejaVuSans-30"
                 x="127.24609"
                 id="use265" />
            </g>
          </g>
        </g>
        <g
           id="text_10">
          <!-- Рост, см -->
          <g
             transform="matrix(0.1,0,0,-0.1,274.30859,229.51656)"
             id="g296">
            <defs
               id="defs278">
              <path
                 id="DejaVuSans-420"
                 d="M 1259,4147 V 2394 h 794 q 441,0 681,228 241,228 241,650 0,419 -241,647 -240,228 -681,228 z m -631,519 h 1425 q 785,0 1186,-355 402,-355 402,-1039 0,-691 -402,-1044 -401,-353 -1186,-353 H 1259 V 0 H 628 Z"
                 transform="scale(0.015625)" />
              <path
                 id="DejaVuSans-43e"
                 d="m 1959,3097 q -462,0 -731,-361 -269,-361 -269,-989 0,-628 267,-989 268,-361 733,-361 460,0 728,362 269,363 269,988 0,622 -269,986 -268,364 -728,364 z m 0,487 q 750,0 1178,-488 429,-487 429,-1349 Q 3566,888 3137,398 2709,-91 1959,-91 1206,-91 779,398 353,888 353,1747 q 0,862 426,1349 427,488 1180,488 z"
                 transform="scale(0.015625)" />
              <path
                 id="DejaVuSans-441"
                 d="m 3122,3366 v -538 q -244,135 -489,202 -245,67 -495,67 -560,0 -870,-355 -309,-354 -309,-995 0,-641 309,-996 310,-354 870,-354 250,0 495,67 245,67 489,202 V 134 Q 2881,22 2623,-34 2366,-91 2075,-91 1284,-91 818,406 353,903 353,1747 q 0,856 470,1346 471,491 1290,491 265,0 518,-55 253,-54 491,-163 z"
                 transform="scale(0.015625)" />
              <path
                 id="DejaVuSans-442"
                 d="M 188,3500 H 3541 V 3041 H 2147 V 0 H 1581 V 3041 H 188 Z"
                 transform="scale(0.015625)" />
              <path
                 id="DejaVuSans-2c"
                 d="m 750,794 h 659 V 256 L 897,-744 H 494 L 750,256 Z"
                 transform="scale(0.015625)" />
              <path
                 id="DejaVuSans-20"
                 transform="scale(0.015625)"
                 d="" />
              <path
                 id="DejaVuSans-43c"
                 d="m 581,3500 h 841 l 994,-2344 997,2344 h 834 V 0 H 3669 V 2950 L 2703,672 H 2128 L 1159,2950 V 0 H 581 Z"
                 transform="scale(0.015625)" />
            </defs>
            <use
               xlink:href="#DejaVuSans-420"
               id="use280" />
            <use
               xlink:href="#DejaVuSans-43e"
               x="60.302734"
               id="use282" />
            <use
               xlink:href="#DejaVuSans-441"
               x="121.48438"
               id="use284" />
            <use
               xlink:href="#DejaVuSans-442"
               x="176.46484"
               id="use286" />
            <use
               xlink:href="#DejaVuSans-2c"
               x="234.7168"
               id="use288" />
            <use
               xlink:href="#DejaVuSans-20"
               x="266.50391"
               id="use290" />
            <use
               xlink:href="#DejaVuSans-441"
               x="298.29102"
               id="use292" />
            <use
               xlink:href="#DejaVuSans-43c"
               x="353.27148"
               id="use294" />
          </g>
        </g>
      </g>
      <g
         id="patch_3">
        <path
           d="m 16.74375,201.24 h 558"
           style="opacity:0.2;fill:none;stroke:#000000;stroke-width:0.8;stroke-linecap:square;stroke-linejoin:miter"
           id="path300" />
      </g>
    </g>
  </g>
  <defs
     id="defs308">
    <clipPath
       id="pf26bb54f20">
      <rect
         x="16.74375"
         y="7.1999998"
         width="558"
         height="221.75999"
         id="rect305" />
    </clipPath>
  </defs>
</svg>
